<svg width="40" height="40" viewBox="0 0 40 40" fill="none" xmlns="http://www.w3.org/2000/svg">
<g clip-path="url(#clip0)">
<path d="M20.6667 40C31.7124 40 40.6667 31.0457 40.6667 20C40.6667 8.9543 31.7124 0 20.6667 0C9.62099 0 0.666687 8.9543 0.666687 20C0.666687 31.0457 9.62099 40 20.6667 40Z" fill="url(#paint0_linear)"/>
<path d="M25.7291 32.5H14.2709C10.5375 32.5 7.5 29.4628 7.5 25.7291V14.2709C7.5 10.5372 10.5375 7.5 14.2709 7.5H25.7291C29.4628 7.5 32.5 10.5372 32.5 14.2709V25.7294C32.5 29.4628 29.4628 32.5 25.7291 32.5ZM14.2709 9.58344C11.6862 9.58344 9.58344 11.6862 9.58344 14.2709V25.7294C9.58344 28.3141 11.6862 30.4169 14.2709 30.4169H25.7291C28.3137 30.4169 30.4166 28.3141 30.4166 25.7294V14.2709C30.4166 11.6862 28.3137 9.58344 25.7291 9.58344H14.2709Z" fill="white"/>
<path d="M20 26.25C16.5538 26.25 13.75 23.4459 13.75 20C13.75 16.5534 16.5538 13.75 20 13.75C23.4462 13.75 26.25 16.5534 26.25 20C26.25 23.4459 23.4462 26.25 20 26.25ZM20 15.8334C17.7025 15.8334 15.8334 17.7025 15.8334 20C15.8334 22.2978 17.7025 24.1666 20 24.1666C22.2975 24.1666 24.1666 22.2978 24.1666 20C24.1666 17.7025 22.2978 15.8334 20 15.8334Z" fill="white"/>
<path d="M26.6406 14.7916C27.4316 14.7916 28.0728 14.1504 28.0728 13.3594C28.0728 12.5685 27.4316 11.9272 26.6406 11.9272C25.8496 11.9272 25.2084 12.5685 25.2084 13.3594C25.2084 14.1504 25.8496 14.7916 26.6406 14.7916Z" fill="white"/>
</g>
<defs>
<linearGradient id="paint0_linear" x1="9.19437" y1="36.3846" x2="32.1393" y2="3.61575" gradientUnits="userSpaceOnUse">
<stop stop-color="#FFB900"/>
<stop offset="1" stop-color="#9100EB"/>
</linearGradient>
<clipPath id="clip0">
<rect width="40" height="40" fill="white"/>
</clipPath>
</defs>
</svg>
