<svg width="40" height="40" viewBox="0 0 40 40" fill="none" xmlns="http://www.w3.org/2000/svg">
<g filter="url(#filter0_d)">
<path fill-rule="evenodd" clip-rule="evenodd" d="M0 20C0 8.95431 8.95431 0 20 0C31.0457 0 40 8.95431 40 20C40 31.0457 31.0457 40 20 40C8.95431 40 0 31.0457 0 20Z" fill="#4C6C91"/>
<path fill-rule="evenodd" clip-rule="evenodd" d="M21.0462 25.8967C21.0462 25.8967 21.4312 25.8547 21.6284 25.6468C21.8089 25.4563 21.8027 25.0968 21.8027 25.0968C21.8027 25.0968 21.7787 23.4181 22.5727 23.1703C23.3553 22.9265 24.3601 24.7937 25.4265 25.5116C26.232 26.0545 26.8434 25.9357 26.8434 25.9357L29.693 25.8967C29.693 25.8967 31.183 25.8066 30.4766 24.6564C30.4181 24.5622 30.0644 23.8053 28.3584 22.2505C26.5711 20.6231 26.8111 20.8863 28.9626 18.0707C30.2731 16.3562 30.7969 15.3095 30.6331 14.8619C30.4776 14.4338 29.5135 14.5474 29.5135 14.5474L26.306 14.5669C26.306 14.5669 26.0682 14.5352 25.8918 14.6386C25.7197 14.74 25.608 14.9766 25.608 14.9766C25.608 14.9766 25.1009 16.3029 24.4237 17.4316C22.9953 19.8119 22.4246 19.9379 22.1908 19.7904C21.6472 19.4452 21.7829 18.4056 21.7829 17.6672C21.7829 15.3596 22.1397 14.3979 21.089 14.149C20.7405 14.0661 20.4838 14.0118 19.5917 14.0026C18.4471 13.9913 17.4788 14.0067 16.9299 14.2699C16.5647 14.445 16.283 14.8363 16.4552 14.8588C16.667 14.8865 17.147 14.9858 17.4016 15.3258C17.7302 15.7652 17.7188 16.7505 17.7188 16.7505C17.7188 16.7505 17.9076 19.4667 17.2774 19.8037C16.8454 20.0352 16.2528 19.563 14.9787 17.4029C14.3266 16.2968 13.8341 15.0739 13.8341 15.0739C13.8341 15.0739 13.7392 14.8455 13.5691 14.7226C13.3635 14.5741 13.0766 14.528 13.0766 14.528L10.0288 14.5474C10.0288 14.5474 9.57073 14.5597 9.40274 14.7554C9.25353 14.9285 9.39126 15.2879 9.39126 15.2879C9.39126 15.2879 11.7776 20.7685 14.48 23.5308C16.9581 26.0627 19.7711 25.8967 19.7711 25.8967H21.0462Z" fill="white"/>
</g>
<defs>
<filter id="filter0_d" x="-4" y="0" width="48" height="48" filterUnits="userSpaceOnUse" color-interpolation-filters="sRGB">
<feFlood flood-opacity="0" result="BackgroundImageFix"/>
<feColorMatrix in="SourceAlpha" type="matrix" values="0 0 0 0 0 0 0 0 0 0 0 0 0 0 0 0 0 0 127 0" result="hardAlpha"/>
<feOffset dy="4"/>
<feGaussianBlur stdDeviation="2"/>
<feComposite in2="hardAlpha" operator="out"/>
<feColorMatrix type="matrix" values="0 0 0 0 0 0 0 0 0 0 0 0 0 0 0 0 0 0 0.25 0"/>
<feBlend mode="normal" in2="BackgroundImageFix" result="effect1_dropShadow"/>
<feBlend mode="normal" in="SourceGraphic" in2="effect1_dropShadow" result="shape"/>
</filter>
</defs>
</svg>
